<svg xmlns="http://www.w3.org/2000/svg" viewBox="0 0 100 100" fill="#4A4636">
  <path d="M48.8 67.72 C45.92 67.31 43.21 65.13 41.75 62.04 C40.83 60.09 39.77 55.5 39.57 52.61 C39.5 51.48 39.5 51.43 39.74 51.53 C42.28 52.65 44.89 53.03 50 53.03 C55.11 53.03 57.72 52.65 60.26 51.53 C60.5 51.43 60.5 51.48 60.43 52.61 C60.23 55.5 59.17 60.09 58.25 62.04 C56.76 65.2 54.1 67.3 51.08 67.72 C50 67.87 49.88 67.87 48.8 67.72 Z"/>
  <path d="M15.23 67.6 C14.29 67.48 12.41 67 12.26 66.85 C12 66.6 24.37 56.84 29.55 53.21 C36.15 48.58 40.23 47.35 44.39 48.71 C44.84 48.86 45.21 49.02 45.21 49.06 C45.21 49.1 44.75 49.12 44.19 49.09 C42.93 49.04 41.64 49.31 40.47 49.88 C38.29 50.93 36.72 52.57 33.48 57.2 C31.38 60.21 30.7 61.04 28.99 62.69 C24.94 66.6 20.29 68.25 15.23 67.6 Z"/>
  <path d="M79.96 67.53 C76.78 66.96 73.72 65.3 71.01 62.69 C69.3 61.04 68.62 60.21 66.52 57.2 C63.28 52.57 61.71 50.93 59.53 49.88 C58.36 49.31 57.07 49.04 55.81 49.09 C55.25 49.12 54.79 49.1 54.79 49.06 C54.79 49.02 55.16 48.86 55.61 48.71 C59.77 47.35 63.85 48.58 70.45 53.21 C75.63 56.84 88 66.6 87.74 66.85 C87.58 67.02 85.73 67.46 84.67 67.6 C83.33 67.77 81.13 67.74 79.96 67.53 Z"/>
  <path d="M46.16 52.08 C43.95 51.91 40.54 51.22 40.54 50.94 C40.54 50.66 43.09 50.2 45.18 50.12 L46.99 50.04 L47.78 50.86 C48.22 51.31 48.64 51.8 48.73 51.95 C48.9 52.27 48.71 52.28 46.16 52.08 Z"/>
  <path d="M51.27 51.95 C51.36 51.8 51.78 51.31 52.22 50.86 L53.01 50.04 L54.82 50.12 C56.91 50.2 59.46 50.66 59.46 50.94 C59.46 51.25 56.05 51.91 53.53 52.1 C51.07 52.28 51.09 52.28 51.27 51.95 Z"/>
  <path d="M49.25 51.24 C48.08 49.49 45.69 47.4 43.74 46.44 C41.25 45.2 37.46 44.64 33.25 44.86 C32.12 44.92 31.17 44.94 31.14 44.9 C31.07 44.78 32.35 42.6 33.23 41.35 C34.39 39.69 36.77 37.34 38.35 36.3 C45.23 31.75 54.77 31.75 61.65 36.3 C63.23 37.34 65.61 39.69 66.77 41.35 C67.65 42.6 68.93 44.78 68.86 44.9 C68.83 44.94 67.88 44.92 66.75 44.86 C62.54 44.64 58.75 45.2 56.26 46.44 C54.31 47.4 51.92 49.49 50.75 51.24 C50.44 51.71 50.1 52.09 50 52.09 C49.9 52.09 49.56 51.71 49.25 51.24 Z"/>
</svg>
